<svg width="20" height="23" viewBox="0 0 20 23" fill="none" xmlns="http://www.w3.org/2000/svg">
<rect x="1.39648" y="5.86551" width="17.7793" height="16.4379" fill="none" stroke="black"/>
<path d="M13.8104 6.03621C13.8104 6.4241 13.8193 6.80329 13.8278 7.16444C13.8286 7.19791 13.8294 7.23123 13.8302 7.26438C13.8394 7.65804 13.847 8.02817 13.8419 8.37852C13.8316 9.08633 13.7691 9.66414 13.5921 10.1253C13.4232 10.5653 13.1473 10.9078 12.668 11.1529C12.1694 11.4079 11.4202 11.5724 10.2863 11.5724C9.15232 11.5724 8.40313 11.4079 7.90452 11.1529C7.42521 10.9078 7.14929 10.5653 6.98046 10.1253C6.80348 9.66414 6.74091 9.08633 6.73064 8.37852C6.72555 8.02817 6.73316 7.65804 6.74234 7.26438C6.74311 7.23122 6.7439 7.1979 6.74469 7.16443C6.75319 6.80328 6.76212 6.4241 6.76212 6.03621C6.76212 4.4543 7.19049 3.04477 7.85679 2.04532C8.52543 1.04237 9.39422 0.5 10.2863 0.5C11.1783 0.5 12.0471 1.04237 12.7157 2.04532C13.382 3.04477 13.8104 4.4543 13.8104 6.03621Z" stroke="black"/>
<rect x="4.92065" y="8.04828" width="10.731" height="4.02414" fill="white"/>
</svg>
