<svg width="22" height="21" viewBox="0 0 22 21" fill="none" xmlns="http://www.w3.org/2000/svg">
<mask id="mask0_106_24" style="mask-type:alpha" maskUnits="userSpaceOnUse" x="0" y="0" width="22" height="21">
<circle cx="11.0086" cy="10.7431" r="9.56035" fill="#B04949" stroke="black"/>
</mask>
<g mask="url(#mask0_106_24)">
<path d="M19.2275 17.45C19.2275 17.9561 19.0433 18.3641 18.6909 18.7122C18.3257 19.073 17.7677 19.3796 17.0188 19.6237C15.5184 20.1127 13.4033 20.3035 11.0085 20.3035C8.61375 20.3035 6.49866 20.1127 4.99822 19.6237C4.24935 19.3796 3.69133 19.073 3.32615 18.7122C2.97379 18.3641 2.78955 17.9561 2.78955 17.45C2.78955 16.402 3.59749 15.193 5.11421 14.2152C6.60786 13.2522 8.69281 12.5845 11.0085 12.5845C13.3242 12.5845 15.4092 13.2522 16.9028 14.2152C18.4196 15.193 19.2275 16.402 19.2275 17.45Z" fill="white" stroke="black"/>
<circle cx="11.0086" cy="10.7431" r="9.56035" stroke="black"/>
<circle cx="11.0085" cy="8.06036" r="2.85345" fill="white" stroke="black"/>
</g>
</svg>
